<?xml version="1.0" encoding="UTF-8" standalone="no"?>
<svg width="606px" height="17px" viewBox="0 0 606 17" version="1.1" xmlns="http://www.w3.org/2000/svg" xmlns:xlink="http://www.w3.org/1999/xlink">
    <!-- Generator: Sketch 3.6.1 (26313) - http://www.bohemiancoding.com/sketch -->
    <title>Group</title>
    <desc>Created with Sketch.</desc>
    <defs></defs>
    <g id="Page-1" stroke="none" stroke-width="1" fill="none" fill-rule="evenodd">
        <g id="Group" transform="translate(1.000000, 0.000000)">
            <g transform="translate(0.000000, 1.000000)" stroke="#3E4B9E">
                <rect id="Rectangle-path" x="87" y="0" width="464" height="15" rx="1"></rect>
                <rect id="Rectangle-path" x="0" y="0" width="18" height="15" rx="2.5"></rect>
                <path d="M10.711,10.429 C10.84,10.545 10.84,10.732 10.711,10.848 C10.582,10.964 10.374,10.964 10.246,10.848 L6.488,7.459 C6.359,7.343 6.359,7.155 6.488,7.04 L10.246,3.651 C10.375,3.535 10.583,3.535 10.711,3.651 C10.839,3.767 10.84,3.954 10.711,4.07 L7.284,7.249 L10.711,10.428" id="Shape" fill="#3E4B9E"></path>
                <rect id="Rectangle-path" transform="translate(35.000000, 7.500000) scale(-1, 1) translate(-35.000000, -7.500000) " x="26" y="0" width="18" height="15" rx="2.5"></rect>
                <path d="M37.512,10.429 C37.641,10.545 37.641,10.732 37.512,10.848 C37.383,10.964 37.175,10.964 37.047,10.848 L33.289,7.459 C33.16,7.343 33.16,7.155 33.289,7.04 L37.047,3.651 C37.176,3.535 37.384,3.535 37.512,3.651 C37.64,3.767 37.641,3.954 37.512,4.07 L34.085,7.249 L37.512,10.428" id="Shape" fill="#3E4B9E" transform="translate(35.400500, 7.249500) scale(-1, 1) translate(-35.400500, -7.249500) "></path>
            </g>
            <rect id="Rectangle-path" fill="#3E4B9E" x="562" y="0" width="17" height="17" rx="1"></rect>
            <path d="M574,13 L567,13 L567,11.792 C567.24,11.35 567.533,10.859 567.88,10.318 C568.227,9.777 568.589,9.232 568.965,8.682 C569.342,8.132 569.725,7.6 570.114,7.085 C570.504,6.57 570.865,6.109 571.199,5.702 L567.205,5.702 L567.205,4.001 L573.858,4.001 L573.858,5.404 C573.584,5.69 573.258,6.06 572.881,6.514 C572.504,6.969 572.114,7.464 571.712,8.001 C571.309,8.538 570.911,9.092 570.517,9.663 C570.123,10.234 569.772,10.78 569.463,11.299 L573.999,11.299 L573.999,13" id="Shape" fill="#FFFFFF"></path>
            <g transform="translate(590.000000, 3.000000)" id="Shape" stroke="#3E4B9E" stroke-width="2">
                <path d="M0.44,0 L14.56,0"></path>
                <path d="M0.44,5.48426317 L14.56,5.48426317"></path>
                <path d="M0.44,11 L14.56,11"></path>
            </g>
        </g>
    </g>
</svg>