<?xml version="1.0" encoding="utf-8"?>
<!-- Generator: Adobe Illustrator 17.1.0, SVG Export Plug-In . SVG Version: 6.00 Build 0)  -->
<!DOCTYPE svg PUBLIC "-//W3C//DTD SVG 1.1//EN" "http://www.w3.org/Graphics/SVG/1.1/DTD/svg11.dtd">
<svg version="1.1" id="Layer_1" xmlns="http://www.w3.org/2000/svg" xmlns:xlink="http://www.w3.org/1999/xlink" width="50px" x="0px" y="0px"
	 viewBox="0 258.5 50 50" enable-background="new 0 258.5 50 50" xml:space="preserve">
<rect y="258.5" fill="#3F4D9C" width="50" height="50"/>
<g opacity="9.000000e-02">
	<path fill="#131B3D" d="M37.8,273.1c-1,1-2.2,2.4-3.5,4c-1.4,1.6-2.8,3.4-4.2,5.3c-1.5,1.9-2.9,3.9-4.3,6c-1.4,2-2.7,4-3.8,5.9
		h16.4v6.1H13v-4.3c0.9-1.6,1.9-3.3,3.2-5.3c1.3-1.9,2.6-3.9,3.9-5.9s2.8-3.9,4.2-5.7s2.7-3.5,3.9-4.9H13.7V268h24.1V273.1
		L37.8,273.1z"/>
</g>
<g>
	<path fill="#FFFFFF" d="M37.2,272.4c-1,1-2.2,2.4-3.5,4c-1.4,1.6-2.8,3.4-4.2,5.3c-1.5,1.9-2.9,3.9-4.3,6c-1.4,2-2.7,4-3.8,5.9
		h16.4v6.1H12.3v-4.3c0.9-1.6,1.9-3.3,3.2-5.3c1.3-1.9,2.6-3.9,3.9-5.9s2.8-3.9,4.2-5.7s2.7-3.5,3.9-4.9H13.1v-6.1h24.1V272.4
		L37.2,272.4z"/>
</g>
</svg>
